<svg width="200" height="200" viewBox="0 0 200 200" fill="none" xmlns="http://www.w3.org/2000/svg">
<path d="M187.5 62.5H175V12.5C175 9.11457 173.763 6.18491 171.289 3.71094C168.815 1.23697 165.885 0 162.5 0H37.5C34.1146 0 31.1849 1.23697 28.7109 3.71094C26.237 6.18491 25 9.11457 25 12.5V62.5H12.5C9.11457 62.5 6.18491 63.737 3.71094 66.2109C1.23697 68.6849 0 71.6146 0 75V137.5C0 140.885 1.23697 143.815 3.71094 146.289C6.18491 148.763 9.11457 150 12.5 150H25V187.5C25 190.885 26.237 193.815 28.7109 196.289C31.1849 198.763 34.1146 200 37.5 200H162.5C165.885 200 168.815 198.763 171.289 196.289C173.763 193.815 175 190.885 175 187.5V150H187.5C190.885 150 193.815 148.763 196.289 146.289C198.763 143.815 200 140.885 200 137.5V75C200 71.6146 198.763 68.6849 196.289 66.2109C193.815 63.737 190.885 62.5 187.5 62.5ZM37.5 125H162.5V187.5H37.5V125ZM162.5 112.5H37.5C34.1146 112.5 31.1849 113.737 28.7109 116.211C26.237 118.685 25 121.615 25 125V137.5H12.5V75H187.5V137.5H175V125C175 121.615 173.763 118.685 171.289 116.211C168.815 113.737 165.885 112.5 162.5 112.5ZM37.5 12.5H162.5V62.5H37.5V12.5ZM139.062 89.4531C138.021 90.4948 137.5 91.9271 137.5 93.75C137.5 95.5729 138.086 97.0703 139.258 98.2422C140.43 99.4141 141.927 100 143.75 100C145.573 100 147.07 99.4141 148.242 98.2422C149.414 97.0703 150 95.5729 150 93.75C150 91.9271 149.414 90.4297 148.242 89.2578C147.07 88.0859 145.573 87.5 143.75 87.5C141.927 87.5 140.365 88.151 139.062 89.4531ZM26.5625 89.4531C25.5208 90.4948 25 91.9271 25 93.75C25 95.5729 25.5859 97.0703 26.7578 98.2422C27.9297 99.4141 29.4271 100 31.25 100C33.0729 100 34.5703 99.4141 35.7422 98.2422C36.9141 97.0703 37.5 95.5729 37.5 93.75C37.5 91.9271 36.9141 90.4297 35.7422 89.2578C34.5703 88.0859 33.0729 87.5 31.25 87.5C29.4271 87.5 27.8646 88.151 26.5625 89.4531ZM164.063 89.4531C163.021 90.4948 162.5 91.9271 162.5 93.75C162.5 95.5729 163.086 97.0703 164.258 98.2422C165.43 99.4141 166.927 100 168.75 100C170.573 100 172.07 99.4141 173.242 98.2422C174.414 97.0703 175 95.5729 175 93.75C175 91.9271 174.414 90.4297 173.242 89.2578C172.07 88.0859 170.573 87.5 168.75 87.5C166.927 87.5 165.365 88.151 164.063 89.4531ZM148.047 148.438C149.349 147.135 150 145.573 150 143.75C150 141.927 149.414 140.43 148.242 139.258C147.07 138.086 145.573 137.5 143.75 137.5H56.25C54.4271 137.5 52.9297 138.086 51.7578 139.258C50.5859 140.43 50 141.927 50 143.75C50 145.573 50.5859 147.07 51.7578 148.242C52.9297 149.414 54.4271 150 56.25 150H143.75C145.573 150 147.005 149.479 148.047 148.438ZM143.75 162.5H56.25C54.4271 162.5 52.9297 163.086 51.7578 164.258C50.5859 165.43 50 166.927 50 168.75C50 170.573 50.5859 172.07 51.7578 173.242C52.9297 174.414 54.4271 175 56.25 175H143.75C145.573 175 147.07 174.414 148.242 173.242C149.414 172.07 150 170.573 150 168.75C150 166.927 149.414 165.43 148.242 164.258C147.07 163.086 145.573 162.5 143.75 162.5Z" fill="#5F6267"/>
</svg>
