<svg width="16" height="12" viewBox="0 0 16 12" fill="none" xmlns="http://www.w3.org/2000/svg">
<path d="M7.19438 8.99561V0.75549C7.19438 0.544655 7.27244 0.366033 7.42857 0.219619C7.5847 0.0732057 7.77517 0 8 0C8.22483 0 8.4153 0.0732057 8.57143 0.219619C8.72756 0.366033 8.80562 0.544655 8.80562 0.75549V8.99561H9.59251C9.81733 8.99561 10.0078 9.06881 10.1639 9.21523C10.3201 9.36164 10.3981 9.54026 10.3981 9.7511C10.3981 9.95022 10.3201 10.123 10.1639 10.2694C10.0078 10.4158 9.81733 10.489 9.59251 10.489H8.80562V11.2445C8.80562 11.4553 8.72756 11.634 8.57143 11.7804C8.4153 11.9268 8.22483 12 8 12C7.77517 12 7.5847 11.9268 7.42857 11.7804C7.27244 11.634 7.19438 11.4553 7.19438 11.2445V10.489H6.40749C6.18267 10.489 5.99219 10.4158 5.83607 10.2694C5.67994 10.123 5.60187 9.95022 5.60187 9.7511C5.60187 9.54026 5.67994 9.36164 5.83607 9.21523C5.99219 9.06881 6.18267 8.99561 6.40749 8.99561H7.19438ZM12.7963 1.49341V0.75549C12.7963 0.544655 12.8743 0.366033 13.0304 0.219619C13.1866 0.0732057 13.377 0 13.6019 0C13.8142 0 13.9984 0.0732057 14.1546 0.219619C14.3107 0.366033 14.3888 0.544655 14.3888 0.75549V1.49341H15.1944C15.4192 1.49341 15.6097 1.56662 15.7658 1.71303C15.9219 1.85944 16 2.03807 16 2.2489C16 2.45974 15.9219 2.63836 15.7658 2.78477C15.6097 2.93119 15.4192 3.00439 15.1944 3.00439H14.3888V11.2445C14.3888 11.4553 14.3107 11.634 14.1546 11.7804C13.9984 11.9268 13.8142 12 13.6019 12C13.377 12 13.1866 11.9268 13.0304 11.7804C12.8743 11.634 12.7963 11.4553 12.7963 11.2445V3.00439H11.9906C11.7783 3.00439 11.5941 2.93119 11.4379 2.78477C11.2818 2.63836 11.2037 2.45974 11.2037 2.2489C11.2037 2.03807 11.2818 1.85944 11.4379 1.71303C11.5941 1.56662 11.7783 1.49341 11.9906 1.49341H12.7963ZM3.20375 3.74231H4.00937C4.2217 3.74231 4.40593 3.81552 4.56206 3.96193C4.71819 4.10835 4.79625 4.28697 4.79625 4.4978C4.79625 4.70864 4.71819 4.88726 4.56206 5.03367C4.40593 5.18009 4.2217 5.25329 4.00937 5.25329H3.20375V11.2445C3.20375 11.4553 3.12568 11.634 2.96956 11.7804C2.81343 11.9268 2.62295 12 2.39813 12C2.18579 12 2.00156 11.9268 1.84543 11.7804C1.6893 11.634 1.61124 11.4553 1.61124 11.2445V5.25329H0.805621C0.580795 5.25329 0.390321 5.18009 0.234192 5.03367C0.0780632 4.88726 0 4.70864 0 4.4978C0 4.28697 0.0780632 4.10835 0.234192 3.96193C0.390321 3.81552 0.580795 3.74231 0.805621 3.74231H1.61124V0.75549C1.61124 0.544655 1.6893 0.366033 1.84543 0.219619C2.00156 0.0732057 2.18579 0 2.39813 0C2.62295 0 2.81343 0.0732057 2.96956 0.219619C3.12568 0.366033 3.20375 0.544655 3.20375 0.75549V3.74231Z" fill="white"/>
</svg>
