<svg width="32" height="32" viewBox="0 0 32 32" fill="none" xmlns="http://www.w3.org/2000/svg">
<rect x="32" y="32" width="32" height="32" rx="8" transform="rotate(-180 32 32)" fill="black" fill-opacity="0.15"/>
<path d="M25 16C25 17.1676 24.206 18.3955 22.5566 19.3851C20.9271 20.3629 18.6113 21 16 21C13.3887 21 11.0729 20.3629 9.44343 19.3851C7.794 18.3955 7 17.1676 7 16C7 14.8324 7.794 13.6045 9.44343 12.6149C11.0729 11.6371 13.3887 11 16 11C18.6113 11 20.9271 11.6371 22.5566 12.6149C24.206 13.6045 25 14.8324 25 16Z" fill="white" stroke="black" stroke-width="2"/>
<circle cx="16" cy="16" r="3" fill="white" stroke="black" stroke-width="2"/>
<path d="M25 16C25 17.1676 24.206 18.3955 22.5566 19.3851C20.9271 20.3629 18.6113 21 16 21C13.3887 21 11.0729 20.3629 9.44343 19.3851C7.794 18.3955 7 17.1676 7 16C7 14.8324 7.794 13.6045 9.44343 12.6149C11.0729 11.6371 13.3887 11 16 11C18.6113 11 20.9271 11.6371 22.5566 12.6149C24.206 13.6045 25 14.8324 25 16Z" fill="white" stroke="black" stroke-width="2"/>
<circle cx="16" cy="16" r="3" fill="white" stroke="black" stroke-width="2"/>
</svg>
