<svg width="16" height="12" viewBox="0 0 16 12" fill="none" xmlns="http://www.w3.org/2000/svg">
<path d="M1.14286 9.6C0.833332 9.6 0.565477 9.71875 0.339286 9.95625C0.113094 10.1938 0 10.475 0 10.8C0 11.125 0.113094 11.4062 0.339286 11.6438C0.565477 11.8813 0.833332 12 1.14286 12C1.45238 12 1.72024 11.8813 1.94643 11.6438C2.17262 11.4062 2.28571 11.125 2.28571 10.8C2.28571 10.475 2.17262 10.1938 1.94643 9.95625C1.72024 9.71875 1.45238 9.6 1.14286 9.6ZM5.14286 1.8H15.4286C15.5833 1.8 15.7173 1.74063 15.8304 1.62188C15.9435 1.50312 16 1.3625 16 1.2C16 1.0375 15.9435 0.896876 15.8304 0.778125C15.7173 0.659375 15.5833 0.6 15.4286 0.6H5.14286C4.98809 0.6 4.85417 0.659375 4.74107 0.778125C4.62798 0.896876 4.57143 1.0375 4.57143 1.2C4.57143 1.3625 4.62798 1.50312 4.74107 1.62188C4.85417 1.74063 4.98809 1.8 5.14286 1.8ZM1.14286 4.8C0.833332 4.8 0.565477 4.91875 0.339286 5.15625C0.113094 5.39375 0 5.675 0 6C0 6.325 0.113094 6.60625 0.339286 6.84375C0.565477 7.08125 0.833332 7.2 1.14286 7.2C1.45238 7.2 1.72024 7.08125 1.94643 6.84375C2.17262 6.60625 2.28571 6.325 2.28571 6C2.28571 5.675 2.17262 5.39375 1.94643 5.15625C1.72024 4.91875 1.45238 4.8 1.14286 4.8ZM15.4286 10.2H5.14286C4.98809 10.2 4.85417 10.2594 4.74107 10.3781C4.62798 10.4969 4.57143 10.6375 4.57143 10.8C4.57143 10.9625 4.62798 11.1031 4.74107 11.2219C4.85417 11.3406 4.98809 11.4 5.14286 11.4H15.4286C15.5833 11.4 15.7173 11.3406 15.8304 11.2219C15.9435 11.1031 16 10.9625 16 10.8C16 10.6375 15.9435 10.4969 15.8304 10.3781C15.7173 10.2594 15.5833 10.2 15.4286 10.2ZM15.4286 5.4H5.14286C4.98809 5.4 4.85417 5.45937 4.74107 5.57812C4.62798 5.69688 4.57143 5.8375 4.57143 6C4.57143 6.1625 4.62798 6.30312 4.74107 6.42188C4.85417 6.54063 4.98809 6.6 5.14286 6.6H15.4286C15.5833 6.6 15.7173 6.54063 15.8304 6.42188C15.9435 6.30312 16 6.1625 16 6C16 5.8375 15.9435 5.69688 15.8304 5.57812C15.7173 5.45937 15.5833 5.4 15.4286 5.4ZM1.14286 0C0.833332 0 0.565477 0.118749 0.339286 0.35625C0.113094 0.593751 0 0.874998 0 1.2C0 1.525 0.113094 1.80625 0.339286 2.04375C0.565477 2.28125 0.833332 2.4 1.14286 2.4C1.45238 2.4 1.72024 2.28125 1.94643 2.04375C2.17262 1.80625 2.28571 1.525 2.28571 1.2C2.28571 0.874998 2.17262 0.593751 1.94643 0.35625C1.72024 0.118749 1.45238 0 1.14286 0Z" fill="white"/>
</svg>
